# xmcd
#
# Track frame offsets:
#	150
#	24612
#	38363
#	54431
#	72247
#	89536
#	104983
#	122851
#	138529
#	156347
#	176808
#	195716
#	215307
#	232843
#	255445
#	270048
#	286969
#	305143
#	325826
#	341109
#
# Disc length: 4720 seconds
#
# Revision: 6
# Processed by: cddbd v1.5.2PL0 Copyright (c) Steve Scherf et al.
# Submitted via: audiograbber 1.83.01
#
DISCID=28126e14
DTITLE=Kevin Johnson - Best Of
DYEAR=2001
DGENRE=Country
TTITLE0=Rock and Roll I Gave You All The Best Years Of My Life
TTITLE1=Life Is What You Make It
TTITLE2=Rollin' (All I've Ever Needed)
TTITLE3=The Next Plane To New Mexico
TTITLE4=Night Rider
TTITLE5=Down Hill Run
TTITLE6=For The Good Of Nation
TTITLE7=Taking The Long Road Home
TTITLE8=Can't Keep A Good Man Down
TTITLE9=He Was Just A Boy
TTITLE10=Man Of The 20th Century
TTITLE11=Paraguayan Sunset
TTITLE12=Ball Of Motivation
TTITLE13=The Young Vaqueros
TTITLE14=Their Song
TTITLE15=New York City
TTITLE16=All Our Favorite Songs
TTITLE17=Grab The Money And Run
TTITLE18=Someday Sam
TTITLE19=The Sense Of It All
EXTD=
EXTT0=
EXTT1=
EXTT2=
EXTT3=
EXTT4=
EXTT5=
EXTT6=
EXTT7=
EXTT8=
EXTT9=
EXTT10=
EXTT11=
EXTT12=
EXTT13=
EXTT14=
EXTT15=
EXTT16=
EXTT17=
EXTT18=
EXTT19=
PLAYORDER=
